/* XPM */
static char *result[] = {
/* columns rows colors chars-per-pixel */
"64 64 212 2 ",
"   c #010226",
".  c #0B0426",
"X  c #00002A",
"o  c #0C0529",
"O  c #01082E",
"+  c #0E0A2C",
"@  c #140B2C",
"#  c #1B0E2D",
"$  c #140727",
"%  c #14112C",
"&  c #1C112E",
"*  c #1B1030",
"=  c #200F2E",
"-  c #26142D",
";  c #2A1733",
":  c #231A33",
">  c #2C1B34",
",  c #291935",
"<  c #341D34",
"1  c #06233D",
"2  c #05283E",
"3  c #0B2B3D",
"4  c #332236",
"5  c #3B2335",
"6  c #3B2539",
"7  c #3D293C",
"8  c #382538",
"9  c #442B37",
"0  c #4B2C37",
"q  c #42263A",
"w  c #452A3A",
"e  c #4B2D3A",
"r  c #512D37",
"t  c #522E39",
"y  c #4E313B",
"u  c #55323C",
"i  c #5A353D",
"p  c #5D383F",
"a  c #36453C",
"s  c #042240",
"d  c #072B44",
"f  c #0A364B",
"g  c #0A394C",
"h  c #0A3547",
"j  c #103947",
"k  c #2E3745",
"l  c #502F40",
"z  c #543241",
"x  c #5E3A42",
"c  c #583844",
"v  c #463141",
"b  c #623D44",
"n  c #0B4E4F",
"m  c #14454F",
"M  c #1B4C4F",
"N  c #17514E",
"B  c #0D4A52",
"V  c #0C4855",
"C  c #164652",
"Z  c #1B4654",
"A  c #154B54",
"S  c #194C54",
"D  c #174D58",
"F  c #184E58",
"G  c #0D5055",
"H  c #0E5D5D",
"J  c #0D505A",
"K  c #145254",
"L  c #1A5355",
"P  c #13565A",
"I  c #1B555A",
"U  c #155A5D",
"Y  c #1F585A",
"T  c #2C4D4B",
"R  c #274C47",
"E  c #314D4D",
"W  c #354946",
"Q  c #2C504E",
"!  c #21524D",
"~  c #34554F",
"^  c #254E51",
"/  c #2A4E52",
"(  c #344F50",
")  c #384B51",
"_  c #245254",
"`  c #2C5354",
"'  c #255559",
"]  c #2D5659",
"[  c #225A5B",
"{  c #2C5A5C",
"}  c #335252",
"|  c #3A5355",
" . c #345955",
".. c #355659",
"X. c #3C565A",
"o. c #345B5C",
"O. c #3B5B5D",
"+. c #15605C",
"@. c #24605F",
"#. c #3C615D",
"$. c #0E5B60",
"%. c #1C5C61",
"&. c #135A61",
"*. c #225D63",
"=. c #2B5D62",
"-. c #355D62",
";. c #3C5D61",
":. c #296265",
">. c #2D6369",
",. c #356365",
"<. c #3C6265",
"1. c #33656B",
"2. c #3C656A",
"3. c #396A6B",
"4. c #434B4D",
"5. c #49494D",
"6. c #46464B",
"7. c #5B464C",
"8. c #5B4A4C",
"9. c #464D52",
"0. c #4A4A51",
"q. c #4A4750",
"w. c #445254",
"e. c #4D5454",
"r. c #4B5559",
"t. c #415C5D",
"y. c #4B5959",
"u. c #465058",
"i. c #515656",
"p. c #535B5C",
"a. c #5D595B",
"s. c #574854",
"d. c #654146",
"f. c #694447",
"g. c #654249",
"h. c #69454B",
"j. c #6D4A4E",
"k. c #624D4D",
"l. c #704C4F",
"z. c #6D4B51",
"x. c #654F53",
"c. c #714D52",
"v. c #645154",
"b. c #695859",
"n. c #745255",
"m. c #755C5B",
"M. c #7D5D5B",
"N. c #775757",
"B. c #42635E",
"V. c #73605F",
"C. c #78605D",
"Z. c #445E61",
"A. c #4B5E61",
"S. c #735F61",
"D. c #6A5F61",
"F. c #446264",
"G. c #4B6363",
"H. c #43656A",
"J. c #4B666B",
"K. c #436A6E",
"L. c #4C6C6C",
"P. c #446A67",
"I. c #546465",
"U. c #5C6665",
"Y. c #536867",
"T. c #556669",
"R. c #59666A",
"E. c #556B6C",
"W. c #5B6B6C",
"Q. c #5C6867",
"!. c #4E716F",
"~. c #5A706F",
"^. c #476B71",
"/. c #4D6D72",
"(. c #516E72",
"). c #5C6D71",
"_. c #4C7175",
"`. c #557172",
"'. c #5C7274",
"]. c #59777A",
"[. c #6C6061",
"{. c #646C6C",
"}. c #6B6C6D",
"|. c #616667",
" X c #796263",
".X c #63706F",
"XX c #636E71",
"oX c #6B6E71",
"OX c #706F72",
"+X c #637273",
"@X c #6B7373",
"#X c #637479",
"$X c #6C767B",
"%X c #6A7A7E",
"&X c #667A7C",
"*X c #717576",
"=X c #71767B",
"-X c #757B7C",
";X c #787B7A",
":X c #805F5C",
">X c #82615E",
",X c #805F60",
"<X c #866562",
"1X c #886663",
"2X c #876864",
"3X c #6F7F84",
"4X c #717A81",
"5X c #787C80",
"6X c #798386",
"7X c #678084",
"8X c #808286",
"9X c None",
/* pixels */
"9X9X9X9X9X9X9X9X9X9X9X9X9X9X9X9X9X9X9X9X9X9X9X9X9X9X9X9X9X9X9X9X9X9X9X9X9X9X9X9X9X9X9X9X9X9X9X9X9X9X9X9X9X9X9X9X9X9X9X9X9X9X9X9X",
"9X9X9X9X9X9X9X9X9X9X9X9X9X9X9X9X9X9X9X9X9X9X9X9X9X9X9X9X9X9X9X9X9X9X9X9X9X9X9X9X9X9X9X9X9X9X9X9X9X9X9X9X9X9X9X9X9X9X9X9X9X9X9X9X",
"9X9X9X9X9X9X9X9X9X9X9X9X9X9X9X9X9X9X9X9X9X9X9X9X9X9X9X9X9X9X9X9X9X9X9X9X9X9X9X9X9X9X9X9X9X9X9X9X9X9X9X9X9X9X9X9X9X9X9X9X9X9X9X9X",
"9X9X9X9X9X9X9X9X9X9X9X9X9X9X9X9X9X9X9X9X9X9X9X9X9X9X9X9X9X9X9X9X9X9X9X9X9X9X9X9X9X9X9X9X9X9X9X9X9X9X9X9X9X9X9X9X9X9X9X9X9X9X9X9X",
"9X9X9X9X9X9X9X9X9X9X9X9X9X9X9X9X9X9X9X9X9X9X9X9X9X9X9X9X9X9X9X9X9X9X9X9X9X9X9X9X9X9X9X9X9X9X9X9X9X9X9X9X9X9X9X9X9X9X9X9X9X9X9X9X",
"9X9X9X9X9XW ^ R W a W ^ L K K L K n n B K I I K L I L L L L K K S A L S L S L L L K G G G P L K I [ L N N ! R R _ ! Q 9X9X9X9X9X",
"9X9X9X9X9Xw.G.A.( T | T.E.).E.E.J.{ M ' H.W.).W.~.#X&X&X'.Y.Y.I.A.A.I.R.R.T.T.G.B.O.{ L { <.H.G.`.%X].:.L N N  .G.G.O.9X9X9X9X9X",
"9X9X9X9X9XA.Q.U.X.} Z.oX*X*XOXoXXXZ.` ;.).*X-X@X@X*X*X*X@X{.|.|.U.|.|.|.|.{.|.R.I.G.#.` Z.E.Q.{.@X6X-X2.L K ' B.W.W.J.9X9X9X9X9X",
"9X9X9X9X9Xy.I.G...` G.oXoXOX}.}.{.Z.` o.R.oX$X@X.X{.{.{.Q.Q.U.U.U.U.U.U.Q.Q.U.I.I.G. .Q Z.Y.Q.W.oX*X=X2.L G Y #.Y.Y.A.9X9X9X9X9X",
"9X9X9X9X9X| O.o._ _ ;.|.oX{.|.|.T.O.^ _ ;.Z.A.Z.F.#.#.O.O.O.#.#.O.O.O.O.#.#.O.O.O.o._ _ O.Y.Q.Q.}.}.XX-.I G K [ o.#.t.9X9X9X9X9X",
"9X9X9X9X9XQ _ _ _ ' o.G.T.G.p.A.Z..._ _ ] ....-. .` ` ` `  .~ ` `  .~ ` ~ ` Q Q } _ ! ` O.A.G.I.I.I.F.[ K G L I Y ' t.9X9X9X9X9X",
"9X9X9X9X9XQ S ] ;.-.o.] o.o...o.] ..| r.A.p.p.p.p.r.e.e.e.e.e.e.i.i.e.e.e.e.4.4.4.4.4.) ~ |  .O.O.o.{ P K I -.<.{ ' B.9X9X9X9X9X",
"9X9X9X9X9XT ] G.R.J.o.N S / ( } } y.a.b.C.C. X Xm.m.N.b.N.n.N.C.C.m.N.b.n.v.k.k.k.v.k.s.9.4.~ ~ ( ` _ K A { J.W.G.o.y.9X9X9X9X9X",
"9X9X9X9X9XT O.R.{.T.o.N ` y.a.b.[.V.m.C.>X2X>X>X>X>X>X>X>X>XC.>X2X>X>X>X>XN.n.l.n.M.M.M.C.V.[.[.D.b.y._ S ;.Q.@XW.o.y.9X9X9X9X9X",
"9X9X9X9X9X~ t.Q.}.I.o.Q r.b. X<X1X<X2X>X2X2X2X2X2X2X>X1X2X2X>X1X2X1X<X<X>XM.N.N.M.>X2X2X>X1X1X1X1X<Xm.o.^ ;.W.{.W.o.4.9X9X9X9X9X",
"9X9X9X9X9XE t.|.}.U. .` i.m.<X<X1X1X>X2X1X>X1X2X>X1X2X>X>X2X>X>X2X<X<X>XC.:X:X>X>X<X1X1X2X2X1X1X<X1XS.t./ ;.W.XXW.X.4.9X9X9X9X9X",
"9X9X9X9X9XT F.@X*XQ.O._ 5.v.n.c.n.n.n.n.N.M.:XM.N.N.m.:X:X:XM.n.c.c.c.c.c.c.c.,X:X:X:X:X:X:Xc.:Xc.n.v.| ^ ;.W.XXW...6.9X9X9X9X9X",
"9X9X9X9X9X~ J.-X;X.XO.Q 9.7.b 7.p p b g.j.n.N.j.x d.z.n.N.N.n.f.b b b b b b b b p b l.l.j.f.b f.g.g.7.( ^ ;.R.|.T...6.9X9X9X9X9X",
"9X9X9X9X9X} E.6X8X@XZ./ 9.7.g.c p p x b z.c.n.h.x p d.n.N.c.c.h.b b b p b b b b f.f.f.f.b b b f.h.h.8.( ^ ;.W.|.T...6.9X9X9X9X9X",
"9X9X9X9X9X} Y.-X;XXX;./ u.z.z.h.d.7.h.j.c.n.n.c.d.x d.n.n.n.n.c.c.b b b b c.c.c.:Xb f.b f.l.c.c.c.n.x.| _ ;.W.XXW.o.6.9X9X9X9X9X",
"9X9X9X9X9X} G.@X;XW.O./ u.x.b.z.z.b b b c.n.n.c.h.x d.j.n.n.n.n.:Xb b b :Xc.:X,Xb b b l.l.c.:Xc.N.N.v.X.' ;.W.oXW.X.5.9X9X9X9X9X",
"9X9X9X9X9X} F.@X*XW.O.^ ) s.z.z.b b b b h.z.z.z.d.x d.d.z.c.z.j.b b b b b b b b b b b f.c.c.j.l.c.c.x...^ ;.).@X).O.5.9X9X9X9X9X",
"9X9X9X9X9X~ H.$X-X{.o.Z k k c c b z t x b b b b x i i i x b b b x x x z b b b b p r i b b b b b x c v R S ;.W.@X).O.5.9X9X9X9X9X",
"9X9X9X9X9X~ H.*X-XXXO.C d + < v z z t t u z z z i u r r r u i c i z r r r i i i r r r i i i b z v ; % g S -.W.@XXXX.5.9X9X9X9X9X",
"9X9X9X9X9X} F.@X@XQ.-.m 2   @ , q l t t r y u u u u 0 r r t z u t r 9 r r t l e t l l i z z z v , @   h D ;.W.oX).X.5.9X9X9X9X9X",
"9X9X9X9X9X~ Z.{.@XY.o.m 1   . $ ; q e e 0 9 9 y y y 0 q e e t e e e e 9 e e q e l l l l t q < = @ . O f A ;.W.XXR.X.5.9X9X9X9X9X",
"9X9X9X9X9X` Z.W.{.Y.o.m 1     . @ ; < q 9 5 5 5 w w 5 < 8 w w q - < q 9 9 5 < 9 q q v < ; = $ o X X O f D -.W.{.R.X.q.9X9X9X9X9X",
"9X9X9X9X9X~ O.Q.{.Y.{ m 1   X X . @ ; < 7 6 < ; 4 8 ; = > 7 7 4 = = < 5 > > < 5 k < = * $ o X X X X O f S ;.R.{.T...q.9X9X9X9X9X",
"9X9X9X9X9X} O.Y.W.Y.o.C 1   X X X . o & > 8 > $ # : # $ & > < , . @ : : & & > 4 , * O X O X X O X X O f F Z.).{.T...0.9X9X9X9X9X",
"9X9X9X9X9X} O.E.Q.Y.O.m 2     X X     . # & # . . $ o . o # * # . X + + . o @ % * X X X X O X X X X O f F ;.).oXW.O.0.9X9X9X9X9X",
"9X9X9X9X9X( t.Q.{.Y.O.m 2     X             .   X     X X . X         . X . X X X X X O X O O X X X O f D ;.XX@X+Xo.q.9X9X9X9X9X",
"9X9X9X9X9X( Z.W..XE.o.m 1     X   X X     X     X X X   X X   X     X X X X X X X O X X O X O O X X X f F ;.XX@XXX;.q.9X9X9X9X9X",
"9X9X9X9X9X( A.XX@XE.o.m 1     X   X   X X     X   X   X   X   X X   X X X X X X O O X O X O X O X O O f F ;.#XoXXX;.0.9X9X9X9X9X",
"9X9X9X9X9X} A.+X@XE.#.C 2     X     X     X     X   X       X     X   X X X X X X X O X X O O X O O O f F ;.XX*XXX;.0.9X9X9X9X9X",
"9X9X9X9X9X( F.+X@XY.o.m 2     X X     X X     X   X X   X     X X X       X X X O O X O O X O O O O O f F ;.XX*XXXZ.c 9X9X9X9X9X",
"9X9X9X9X9X( y.+X@XQ.o.m 2     X   X X     X X         X   X X       X X X X X X X X O X X O X O O O O f F 2.XX=X#X;.9.9X9X9X9X9X",
"9X9X9X9X9X( F.+X@XQ.o.C 2     X X     X X     X X   X   X   X     X X   X X X X O X O O O O X O O O O f D 2.XX$X#X;.q.9X9X9X9X9X",
"9X9X9X9X9X} Z.+X@XY.o.C 2     X   X X     X X     X   X   X   X X     X   X X X X X O X X X O X O O O f D 2.XX=XoX;.q.9X9X9X9X9X",
"9X9X9X9X9X( F.+X@XW.#.B 2     X X     X X     X   X   X       X   X   X X X X X O O X O O X X O O O O f F 2.#XOX#X;.0.9X9X9X9X9X",
"9X9X9X9X9X} O.{.@XW.-.C 1   X X     X     X     X   X   X   X   X   X   X X X X X X O O X O O O X O O f F 2.XX4X).;.0.9X9X9X9X9X",
"9X9X9X9X9X( t.W.oX~.<.C 2   X   X     X     X     X     X     X     X X X X X X X X X X O X O X X X O g K <.'.@XXX-.0.9X9X9X9X9X",
"9X9X9X9X9X} Z.W.OX.XF.C 2     X   X X     X   X X     X   X X   X     X X X X X X X X X O X X O X X O f F <..X@X).-.9.9X9X9X9X9X",
"9X9X9X9X9X} t.|.OX}.<.C 2       X     X X   X   X X X X X       X     X X X X X X O O X X O O X X X O f F <.~.@X).-.9.9X9X9X9X9X",
"9X9X9X9X9X..F.).@X~.<.C 2         X X   X X   X X X X X   X X X   X   X X X X X X X O O O X O O X X O g D <.'.@X).-.9.9X9X9X9X9X",
"9X9X9X9X9Xo.;.)..XY.:.m 1   X   X   X     X X X X X X X X X X X X X X   X X X X O X O X O X O X X X O g D <.+X*X'.;.0.9X9X9X9X9X",
"9X9X9X9X9X .<.).~.<.[ B 2     X   X X X X X X X X X X X X X X X X X X X X X X X X O X O O O X O X O O f S <.'.*X#X;.0.9X9X9X9X9X",
"9X9X9X9X9X .O.E.G.@.P B 2     X X   X X X X X X X X X X X X X X X X X X X X X X O O X O X O X O O X O f D 2.+X*X#XZ.0.9X9X9X9X9X",
"9X9X9X9X9X .#.E.G.@.P B 2   X X   X X X X X X X X X X X X X X X X X X X X X X X O X O X O X O X O X O g S 2.+X$XXX;.0.9X9X9X9X9X",
"9X9X9X9X9X .#.~.Y.,.Y B 2     X X X X X X X X O X X O X X X X X X X X X X X X X O O X O X O X X X O O f F 2.+X@X'.-.0.9X9X9X9X9X",
"9X9X9X9X9X~ B.~.+XL.:.C 1   X   X X X O O O X X O X X O X X X X O O O O O O O X X X O X O X X X O X O f L 2.~.+XW.o.w.9X9X9X9X9X",
"9X9X9X9X9X~ A.#X@X~.:.B 2     X X X X X X X X X X O O X X X X X X O O X O X O X O X O O O X X X X O X g D <.~..X`.-.y.9X9X9X9X9X",
"9X9X9X9X9X~ G.XX@XL.{ C 1     X X X X X O X O O X X O X X X X X X X X O X X O O X O X O X O X X O X O g S <.+X#XE.,.u.9X9X9X9X9X",
"9X9X9X9X9X} O.(.(.2.%.J d   X X X X X X X X X X X X X X X X X X X X X X + O O O O O O O X X X X O O O g K 2.).'./.-.u.9X9X9X9X9X",
"9X9X9X9X9X~ { 1.=.*.P J V 1 1 1 1 s s s s s 1 1 s s s s 1 1 1 s s s 1 s s s s s s s s s 1 1 s 1 s s s V P =.H.K.2.-.u.9X9X9X9X9X",
"9X9X9X9X9X~ ' I &.&.P U I Z C S Z Z Z F Z C C C Z Z Z Z Z C C Z Z j ^ Z Z Z Z g Z Z Z Z C C C C g F F K P &.:.:.:.=.| 9X9X9X9X9X",
"9X9X9X9X9XX.,.-.*.&.%.1.K.K.^.L.^.H.Z.;.;.1.<.,.-.2.-.2.;.<.<.<.^.J.J.J.J.(.(.^.H.2.2.1.<.<.,.,.2.;.<.,.:.%.&.*.,.,.-.9X9X9X9X9X",
"9X9X9X9X9XZ.(./.-.%.>.3X3X7X6X7X4X%X&X'.!.L.!.!././.(.(.(.(.(.'.4X4X4X4X4X4X4X4X&X#X'.'.'.!.L.L.!.~.'.`.^.:.*.1./._.K.9X9X9X9X9X",
"9X9X9X9X9XT.XX].;.*.>._._.3X6X8X-X*X@X`.P.,.,.3.,.3.2.3.2.2.2.(.).4X=X4X=X4X4XOX%X@X&X#X`.L.P.,.P.!.'.].^.:.:.^.'.].^.9X9X9X9X9X",
"9X9X9X9X9XF.(./.-.%.&.*.H.].3X4X&X'.L.,.@.H H H $.$.$.$.$.&.%.=.K.4X_.].].].).).'.'.'.!.3.@.U U U ,.3.3.*.$.%.1._.`.1.9X9X9X9X9X",
"9X9X9X9X9X9X9X9X9X9X9X9X9X9X9X9X9X9X9X9X9X9X9X9X9X9X9X9X9X9X9X9X9X9X9X9X9X9X9X9X9X9X9X9X9X9X9X9X9X9X9X9X9X9X9X9X9X9X9X9X9X9X9X9X",
"9X9X9X9X9X9X9X9X9X9X9X9X9X9X9X9X9X9X9X9X9X9X9X9X9X9X9X9X9X9X9X9X9X9X9X9X9X9X9X9X9X9X9X9X9X9X9X9X9X9X9X9X9X9X9X9X9X9X9X9X9X9X9X9X",
"9X9X9X9X9X9X9X9X9X9X9X9X9X9X9X9X9X9X9X9X9X9X9X9X9X9X9X9X9X9X9X9X9X9X9X9X9X9X9X9X9X9X9X9X9X9X9X9X9X9X9X9X9X9X9X9X9X9X9X9X9X9X9X9X",
"9X9X9X9X9X9X9X9X9X9X9X9X9X9X9X9X9X9X9X9X9X9X9X9X9X9X9X9X9X9X9X9X9X9X9X9X9X9X9X9X9X9X9X9X9X9X9X9X9X9X9X9X9X9X9X9X9X9X9X9X9X9X9X9X",
"9X9X9X9X9X9X9X9X9X9X9X9X9X9X9X9X9X9X9X9X9X9X9X9X9X9X9X9X9X9X9X9X9X9X9X9X9X9X9X9X9X9X9X9X9X9X9X9X9X9X9X9X9X9X9X9X9X9X9X9X9X9X9X9X"
};
