/* XPM */
static char *result[] = {
/* columns rows colors chars-per-pixel */
"64 64 19 1 ",
"  c #472E1A",
". c #492D1A",
"X c #482E1A",
"o c #47331A",
"O c #553621",
"+ c #563722",
"@ c #573823",
"# c #563D22",
"$ c #583823",
"% c #593823",
"& c #583E23",
"* c #673F28",
"= c #673F29",
"- c #693E28",
"; c #683F28",
": c #6A3E28",
"> c #654029",
", c #664029",
"< c #654729",
/* pixels */
">>>>>>>>>>>>>>>>>>>>>>>>>>>>>>>>>>>>>>>>>>>>>>>>>>>>>>>>>>>$.>>>",
">>>>>>>>>>>>>>>>>>>>>>>>>>>>>>>>>>>$$$$$>>>>>>>>>>>>>>>>>>>>.>>>",
">>>>>>>>>>>>>>>>>>>>>>>>>>>>>>>>>>>>>>>>>>>>>>>>>>>>>>>>>>>>.>>>",
">>>>>>>>>>>>>>>>>>>>>>>>>>>>>>>>>>>>>>>>>>>>>>>>>>>>>>>>>>>>.$$$",
">>>>>>>>>>>>>>>>>>>>>>>>>>>>>>>>>>>>>>>>>>>>>>>>>>>>>>>>>>>>.>>>",
">>>>>>>>>>>>>>>>>>>>>>>>>>>>>>>>>>>>>>>>>>>>>$$$$$$$$$$$$$$$.>>>",
">>>>>>>>>>>>>>>>>>>>>>>>>>>>>>>>>>>>>>>>>>>>>>>>>>>>>>>>>>>> >>>",
">>>>>>>>>>>>>>>>>>>>>>>>>>>>>>>>>>>>>>****=>>>>>>>>>>>>>>>>> $>>",
">>>>>>>>>>>>>>>>>>>>>>>>>>>>>>>>>>>>>>>>>>>>>>>>>>>>>>>>>>>> $$>",
">>>>>>>>>>>>>>>>>>>>>>>>>>>>>>>>>>>>>>>>>>>>>>>>>>>>>>>>>$$$ $>>",
">>>>>>>>>>>>>>>>>>>>>>>>>>>>>>>>>>>>>>>>>>>>>>>>>>>>>>>>>>>> >>>",
">>>>>>>>>>>>>>>>>>>>>>>>>>>>>>>>>>>>>>>>>>>>>>>>>>>>>>>>>>>$ $>>",
">>>>>>>>>>>>>>>>>>>>>>>>>>>>>>>>>>>>>>>>>>>>>>>>>>>>>>>>$$$$.$$$",
"          $>>>$$                      $$$$      X>>>$$$$$$$$    ",
"                oooooooooooooooooooooooooo&&    XXXXXXXXXXXXXX  ",
">>>>>>>>>>>>>$$ &&&<<<<<<<<<<<<<<<<<<<<<<<<<&$>>>>>>>>>>>>>>>>>>",
">>>>>>>>>>>>>>$ &&<<<<<<<<<<<<<<<<<<<<<<<<<<<$>>>>>>>>>>>>>>>>>>",
">>>>>>>>>>>>>>> &<<<<<<<<<<<<<<<<<<<<<<<<<<<<&$>>>,>>>>>>>>>>>>>",
">>>>>>>>>>>>>>> <<<<<<<<<<<<<<<<<<<<<<<<<<<<<<$>>>,>>>>>>>>>>>>>",
">>>>>>>>>>>>>>$ <<<<<<<<<<<<<<<<<<<<<<<<<<<<<<&>>>>>>>>>>>>>>>;>",
">>>>>>>>>>>>>$$  &&&<<<<<<<<<<<<<<<<<<<<<<<<<<<$$>>>>>>>>>>>>>>$",
">>>>>>>>>>$$$$$  <<&&&&<<<<<<<<<<<<<<<<<<<<<<<<&$$$%>>>>>>>>>>>>",
">>>>>>>>>>>>>>$$ &&&&&&&&&<<<<<<<<<<<<<<<<<<<<<<&>>>>>>>>>>>>>>>",
">>>>>>>>>>>>>>>$ &<<<<<<<<<<<<<<<<<<<<<<<<<<<<<<&$>>>>>>>>>>>>>>",
">>>>>>>>>>>>>>>$ <<<<<<<<<<<<<<<<<<<<<<<<<<<<<<<<&$>>:>>>>>>>>>>",
">>>>>>>>>>>>>>>$ <<<<<<<<<<<<<<<<<&<&&&&<<<<<<<<&&&>>>>>>>>>>>>>",
">>>>>>>>>>>>>>>$&<<<<<<<<<<&<<&&&&&&&&&&&&&&&&&&&&&&>>>>>:->>>>>",
">>>>>$$$$$$$$$$$+<<<<<<<<<<<<<<<<<<<<<<<<<<<<<<<&&&&<>>>>>>>>>>>",
">>>>>>>>>>>>>>$$+<<<<<<<<<<<<<<<<<<<<<<<<<<<<<<<<<<&&>>>>>>>>>>>",
">>>>>>>>>>>>>>>>+<<<<<<<<<<<<<<<<<<<<<<<<<<<<<<<<<<<&&>>>>>>>>>>",
">>>>>>>>>>>>>>>>+&<<<<<<<<<<<<<<<<<<<<<<<<<<<<<<<<<<<&&>>>>>>>>>",
">>>>>>>>>>>>>>>>+&<<<<<<<<<<<<<&&&&&<<<<<<<<<<<<<<<<<<&&>>>>>>>>",
"   $$$>>>>>>>>>$$&&<<<<<<<<<&&&#<<<#&&&&&&<<<<<<<<<<<<<&>>>>>>>>",
"                    oooooooooooooooooooooooooooooooooooo    @   ",
"O OOOOOOO  OOOOOOOOOOOOOOOOOOOOOOOOOOOO       OOOOOOOOOO    @  @",
">O+>>>>>>O>>>>>>>>>>>>>>>>>>>>>>>>>>>>>>OOOO>>>>>>>>>>>>>>>>>>>>",
">>>$$$$$$>>>>>>>>>>>>>>>>>>>>>>>>>>>>>>>>>>>>>>>>>>>>>>>>>>>>>>>",
">>>>>>>>>>>>>>>>>>>>>>>>>>>>>>>>>>>>>>>>>>>>>>>>>>>>>>>>>>>>>>>>",
">>>>>>>>>>>>>>>>>>>>>>>>>>>>>>>>>>>>>>>>>>>>>>>>>>>>>>>>>>>>>>>>",
">>>>>>>>>>>>>>>>>>>>>>>>>>>>>>>>>>>>>>>>>>>>>>>>>>$>$$>>$$>>>>>>",
">>>>>>>>>>>>>>>>>>>>>>>>>>>>>>>>>>>>>>>>>>>>>>>>>>>>>>>>>>>>>>>>",
">>>>>>>>>>>>>>>>>>>>>>>>>>>>>>>>>>>>>>>>>>>>>>>>>>>>>>>>>>>>>>>>",
">>>>>>>>>>>>>>$$$$$>>>>>>>>>>>>>>>>>>>>>>>>>>>>>>>>>>>>>>>>$$>>>",
">>>>>>>$>$$$$$$>>>>$$>>>>>>>>>>>>>>>>>>>>>>>>>$>$$$$$$$$$$$$+$>>",
"$>>$$$$$$$>$$>>>>>$$$$$$$$$$>>$>>>>>>>>>>>>>>>>>>>>>>>>>>>$$$$$$",
">>>>>>>>>>>>>$>$$$$$>>>>>>>>>>>>>>>>>>>>>>>>>>>>>>>>>>>>>>>>$$>>",
">>>>>>>>>>>>>>>>>>>>>>>>>>>>>>>>>>>>>>>>>>>>>>>>>>>>>>>>>>>>+$>>",
">>>>>>>>>>>>>>>>>>>>>>>>>>>>>>>>>>>>>>>>>>>>>>>>>>>>>>>>>>>>+>>>",
">>>>>>>>>>>>>>>>>>>>>>>>>>>>>>>>>>>>>>>>>>>>>>>>>>>>>>>>>>>$+>>>",
"$$$$$$$$$$$$$$$$$$$$$$$$$$$$$$$$$$$$$$$$$$$$$$$$$$$$$$$$$$$$+$$$",
"+++++++++++++++++++>+++++++>>>>>>>>>>>>>>>>>>>>>>>>>>>>>>>>>>>++",
">>>>>>>>>>>>>>>>+>>>>>>>>>>>>>>>>>>>>>>>>>>>>>>>>>>>>>>>>>>>>>>>",
">>>>>>>>>>>>>>>>+>>>>>>>>>>>>>>>>>>>>>>>>>>>>>>>>>>>>>>>>>>>>>>>",
">>>>>>>>>>>>>>>>+>>>>>>>>>>>>>>>>>>>>>>>>>>>>>>>>>>>>>>>>>>>>>>>",
">>>>>>>>>>>>>>>>+>>>>>>>>>>>>>>>>>>>>>>>>>>>>>>>>>>>>>>>>>>>>>>>",
">>>>>>>>>>>>>>>+>+++>++>>+>>>>>>>>>>>+>>>>>>>>>>>>>>>>>>>>>>>>>>",
">>>>>>>>>>>>>>>>+>>>>>>>>>>>>>>>>>>>>>>>>>>>>>>>>>>>>>>>>>>>>>>>",
">>>>>>>>>>>>>>>>>>>>>>>>>>>>>>>>>>>>>>>>>>>>>>>>>>>>>>>>>>>>>>>>",
"++++++>>>>>>>>>>>>>>>>>>>>>>>>>>>>>>>>>>>>>>>>>>>>>>>>>>>>>>>>>>",
"+>>>>>>>>>>>>>>>>>>>>>>>>>>>>>>>>>>>>>>>>>>>>>>>>>>>>>>>>>>>>>>>",
">>>>>>>>>>>>>>>>>>>>>>>>>>>>>>>>>>>>>>>>>>>>>>>>>>>>>>>>>>>>>>>>",
">>>>>>>>>>>>>>>>>>>>>>>>>>>>>>>>>>>>>>>>>>>>>>>>>>>>>>>>>>>>>>>>",
">>>>>>>>>>>>>>>>>>>>>>>>>>>>>>>>>>>>>>>>>>>>>>>>>>>>>>>>>>>>>>>>",
">>>>>>>>>>>>>>>>>>>>>>>>>>>>>>>>>>>>>>>>++++>++>>>>>>>>>>>>>>>>>"
};
