/* XPM */
static char *result[] = {
/* columns rows colors chars-per-pixel */
"64 64 9 1 ",
"  c #080000",
". c #B97371",
"X c #67979C",
"o c #CF9C9B",
"O c #9CC8CC",
"+ c #9CC8CD",
"@ c #E3C6C5",
"# c white",
"$ c None",
/* pixels */
"$$$$$$$$$$$$$$$$$$$$                        $$$$$$$$$$$$$$$$$$$$",
"$$$$$$$$$$$$$$$$$$$$                        $$$$$$$$$$$$$$$$$$$$",
"$$$$$$$$$$$$$$$$        oooooooooooooooo        $$$$$$$$$$$$$$$$",
"$$$$$$$$$$$$$$$$        oooooooooooooooo        $$$$$$$$$$$$$$$$",
"$$$$$$$$$$$$$$      oo@@@@@@@@@@@@@@@@@@@@oo      $$$$$$$$$$$$$$",
"$$$$$$$$$$$$$$      oo@@@@@@@@@@@@@@@@@@@@oo      $$$$$$$$$$$$$$",
"$$$$$$$$$$$$    oo@@@@@@@@@@@@@@@@@@@@@@@@@@@@oo    $$$$$$$$$$$$",
"$$$$$$$$$$$$    oo@@@@@@@@@@@@@@@@@@@@@@@@@@@@oo    $$$$$$$$$$$$",
"$$$$$$$$$$    oo@@@@@@@@@@@@@@@@@@@@@@@@@@@@@@@@oo    $$$$$$$$$$",
"$$$$$$$$$$    oo@@@@@@@@@@@@@@@@@@@@@@@@@@@@@@@@oo    $$$$$$$$$$",
"$$$$$$$$    oo@@@@@@@@@@@@@@@@@@@@@@@@@@@@@@@@@@@@oo    $$$$$$$$",
"$$$$$$$$    oo@@@@@@@@@@@@@@@@@@@@@@@@@@@@@@@@@@@@oo    $$$$$$$$",
"$$$$$$$$    @@@@@@@@@@@@@@@@@@@@@@@@@@@@@@@@@@@@@@@@    $$$$$$$$",
"$$$$$$$$    @@@@@@@@@@@@@@@@@@@@@@@@@@@@@@@@@@@@@@@@    $$$$$$$$",
"$$$$$$    oo@@@@@@@@@@@@@@@@@@@@@@@@@@@@@@@@@@@@@@@@oo    $$$$$$",
"$$$$$$    oo@@@@@@@@@@@@@@@@@@@@@@@@@@@@@@@@@@@@@@@@oo    $$$$$$",
"$$$$$$    @@@@@@@@@@@@@@@@@@@@@@@@@@@@@@@@@@@@@@@@@@@@    $$$$$$",
"$$$$$$    @@@@@@@@@@@@@@@@@@@@@@@@@@@@@@@@@@@@@@@@@@@@    $$$$$$",
"$$$$    oo@@@@@@@@@@oo        oo@@@@@@@@@@@@@@@@@@@@@@oo    $$$$",
"$$$$    oo@@@@@@@@@@oo        oo@@@@@@@@@@@@@@@@@@@@@@oo    $$$$",
"$$$$    oo@@@@@@@@@@      ####  @@@@@@@@@@@@@@@@@@@@@@oo    $$$$",
"$$$$    oo@@@@@@@@@@      ####  @@@@@@@@@@@@@@@@@@@@@@oo    $$$$",
"$$$$    oo@@@@@@@@@@      ####  @@@@@@@@@@@@@@@@@@@@@@oo    $$$$",
"$$$$    oo@@@@@@@@@@      ####  @@@@@@@@@@@@@@@@@@@@@@oo    $$$$",
"$$$$        oo@@@@@@            @@@@@@@@@@@@@@@@@@@@@@oo    $$$$",
"$$$$        oo@@@@@@            @@@@@@@@@@@@@@@@@@@@@@oo    $$$$",
"$$$$          oo@@@@            @@@@@@@@@@@@@@@@@@@@oo..    $$$$",
"$$$$          oo@@@@            @@@@@@@@@@@@@@@@@@@@oo..    $$$$",
"$$$$    ######  @@@@oo        oo@@@@@@@@@@@@@@@@@@@@oo    $$$$$$",
"$$$$    ######  @@@@oo        oo@@@@@@@@@@@@@@@@@@@@oo    $$$$$$",
"$$$$            @@@@@@OOOOOOOO@@@@@@@@@@@@@@@@@@@@oo..    $$$$$$",
"$$$$            @@@@@@OOOOOOOO@@@@@@@@@@@@@@@@@@@@oo..    $$$$$$",
"$$$$$$    oooooo@@@@@@++++++OO@@@@@@@@@@@@@@@@@@@@oo    $$$$$$$$",
"$$$$$$    oooooo@@@@@@++++++OO@@@@@@@@@@@@@@@@@@@@oo    $$$$$$$$",
"$$$$$$    ..oo@@@@@@@@++++OOOO@@@@@@@@@@@@@@@@@@oo..    $$$$$$$$",
"$$$$$$    ..oo@@@@@@@@++++OOOO@@@@@@@@@@@@@@@@@@oo..    $$$$$$$$",
"$$$$$$$$    ..oo@@@@@@++++++OO@@@@@@@@@@@@@@@@oo..    $$$$$$$$$$",
"$$$$$$$$    ..oo@@@@@@++++++OO@@@@@@@@@@@@@@@@oo..    $$$$$$$$$$",
"$$$$$$$$$$    ..oo@@@@++++++++@@@@@@@@@@@@oooo..    $$$$$$$$$$$$",
"$$$$$$$$$$    ..oo@@@@++++++++@@@@@@@@@@@@oooo..    $$$$$$$$$$$$",
"$$$$$$$$$$$$      ..ooXX++++++@@@@@@@@@@oo..      $$$$$$$$$$$$$$",
"$$$$$$$$$$$$      ..ooXX++++++@@@@@@@@@@oo..      $$$$$$$$$$$$$$",
"$$$$$$$$$$$$$$          XXXXXXoooooooo..        $$$$$$$$$$$$$$$$",
"$$$$$$$$$$$$$$          XXXXXXoooooooo..        $$$$$$$$$$$$$$$$",
"$$$$$$$$$$$$$$$$$$                            $$$$$$$$$$$$$$$$$$",
"$$$$$$$$$$$$$$$$$$                            $$$$$$$$$$$$$$$$$$",
"$$$$$$$$$$$$$$$$    oo@@                @@oo    $$$$$$$$$$$$$$$$",
"$$$$$$$$$$$$$$$$    oo@@                @@oo    $$$$$$$$$$$$$$$$",
"$$$$$$$$$$$$$$    oo@@@@oooooooooooooooo@@@@oo    $$$$$$$$$$$$$$",
"$$$$$$$$$$$$$$    oo@@@@oooooooooooooooo@@@@oo    $$$$$$$$$$$$$$",
"$$$$$$$$$$$$$$    oo@@  oo@@@@@@@@@@@@oo  @@oo    $$$$$$$$$$$$$$",
"$$$$$$$$$$$$$$    oo@@  oo@@@@@@@@@@@@oo  @@oo    $$$$$$$$$$$$$$",
"$$$$$$$$$$$$$$    oo@@  @@@@@@@@@@@@@@@@  @@oo    $$$$$$$$$$$$$$",
"$$$$$$$$$$$$$$    oo@@  @@@@@@@@@@@@@@@@  @@oo    $$$$$$$$$$$$$$",
"$$$$$$$$$$$$$$$$        @@@@oo    oo@@@@        $$$$$$$$$$$$$$$$",
"$$$$$$$$$$$$$$$$        @@@@oo    oo@@@@        $$$$$$$$$$$$$$$$",
"$$$$$$$$$$$$$$$$$$      @@@@oo    @@@@@@      $$$$$$$$$$$$$$$$$$",
"$$$$$$$$$$$$$$$$$$      @@@@oo    @@@@@@      $$$$$$$$$$$$$$$$$$",
"$$$$$$$$$$$$$$$$$$$$      @@oo    @@@@      $$$$$$$$$$$$$$$$$$$$",
"$$$$$$$$$$$$$$$$$$$$      @@oo    @@@@      $$$$$$$$$$$$$$$$$$$$",
"$$$$$$$$$$$$$$$$$$$$$$                    $$$$$$$$$$$$$$$$$$$$$$",
"$$$$$$$$$$$$$$$$$$$$$$                    $$$$$$$$$$$$$$$$$$$$$$",
"$$$$$$$$$$$$$$$$$$$$$$$$      $$$$      $$$$$$$$$$$$$$$$$$$$$$$$",
"$$$$$$$$$$$$$$$$$$$$$$$$      $$$$      $$$$$$$$$$$$$$$$$$$$$$$$"
};
