/* XPM */
static char *result[] = {
/* columns rows colors chars-per-pixel */
"64 64 48 1 ",
"  c #060505",
". c #0D0606",
"X c #0E0808",
"o c #110707",
"O c #140B0B",
"+ c #1B0E0E",
"@ c #151111",
"# c #1C1212",
"$ c #1E1919",
"% c #231313",
"& c #2B1717",
"* c #241D1D",
"= c #2D1919",
"- c #331A1A",
"; c #3B1E1E",
": c #272020",
"> c #2B2323",
", c #312626",
"< c #3E2020",
"1 c #342A2A",
"2 c #3A2E2E",
"3 c #3E3131",
"4 c #442222",
"5 c #4C2626",
"6 c #4F2828",
"7 c #532929",
"8 c #5C2E2E",
"9 c #433535",
"0 c #473939",
"q c #4C3C3C",
"w c #5F3030",
"e c #503F3F",
"r c #602F2F",
"t c #643131",
"y c #6B3434",
"u c #703737",
"i c #723838",
"p c #534242",
"a c #594646",
"s c #5D4949",
"d c #614D4D",
"f c #665151",
"g c #6B5555",
"h c #6F5858",
"j c #725B5B",
"k c #795F5F",
"l c #7D6363",
"z c None",
/* pixels */
"zzzzzzzzzzzzzzzzzzzzzzzzzzzzzzzzzzzzzzzzzzzzzzzzzzzzzzzzzzzzzzzz",
"zzzzzzzzzzzzzzzzzzzzzzzzzzzzzz*zzzzzzzzzzzzzzzzzzzzzzzzzzzzzzzzz",
"zzzzzzzzzzzzzzzzzzzzzzzzzzzzzz:>zzzzzzzzzzzzzzzzzzzzzzzzzzzzzzzz",
"zzzzzzzzzzzzzzzzzzzzzzzzzzzzz>>zzzzzzzzzzzzzzzzzzzzzzzzzzzzzzzzz",
"zzzzzzzzzzzzzzzzzzzzzz:*zzzz>3>zzzzzzzzzzzzzzzzzzzzzzzzzzzzzzzzz",
"zzzzzzzzzzzzzzzzzzzzz$**zzzz>01zzzzzzz*zzzzzzzzzzzzzzzzzzzzzzzzz",
"zzzzzzzzzzzzzzzzzzzzz11*zzz>0d1zzzzzzz>*zzzzzzzzzzzzzzzzzzzzzzzz",
"zzzzzzzzzzzzzzzzzzzz>p3*zz$1sj9*zzzzzz*>>zzzzzzzzzzzzzzzzzzzzzzz",
"zzzzzzzzzzzzzzzzzzzz>h0*zz$2pp0,:zzzzz*03:zzzzzzzzzzzzzzzzzzzzzz",
"zzzzzzzzzzzzzzzzzzz:1lp$z*1age01*zzzz*>dp>zzzzzzzzzzzzzzzzzzzzzz",
"zzzzzzzzzzzzzzzzzz*1pgp>z*0glaq01zzzz1ajs1zzzzzzzzzzzzzzzzzzzzzz",
"zzzzzzzzzzzzzzzzzz#>0031*$2sd0001*zzz>da92:zzzzzzzzzzzzzzzzzzzzz",
"zzzzzzzzzzzzzzzzzzO+@@OOOOO@++O@OOOOoO@@O@OOzzzzzzzzzzzzzzzzzzzz",
"zzzzzzzzzzzzzzzzO. O&<566555566444#O=444;%OoooOzzzzzzzzzzzzzzzzz",
"zzzzzzzzzzzzzzzoo=;;;ryyuyyuytyytw&=58tt8;++&%Oozzzzzzzzzzzzzzzz",
"zzzzzzzzzzzzzzOO+8y8;ryyyyyyyttuy7=48tyyy7+%-=+OOzzzzzzzzzzzzzzz",
"zzzzzzzzzzzzzOo%8yur;ryt88tytyti7%&5tyyuy6%+&-&+OOzzzzzzzzzzzzzz",
"zzzzzzzzzzzzzo.%iyy8;rut88tyyyui4O4rytrty5+%&-&+OOzzzzzzzzzzzzzz",
"zzzzzzzzzzzzz@Xo;tir;rutttyyuu74<-;8yyrty6%%&&&&#Ozzzzzzzzzzzzzz",
"zzzzzzzzz**:21>**5y8;ruytyytt8<-48%4yyrty5+%-&&&%Ozzzzzzzzzzzzzz",
"zzzz*>>*>**>gapgg=47-rytyyi8;-58tt-4ryyyy6+%&%+++ozzzz:::::zzzzz",
"zzzzz*>*1000spsfdO;8=ruyyy7456tyut;%4turt6+%%%11*#@#@0ap1*zzzzzz",
"zzzzzz:>1339ppq0>-88;ryyyt67tyyyyy8&;rurr5%%+*pp33qp3psq>zzzzzzz",
"zzzzzzz*>::>0331O7y8;ryytwtyyyyyyyy;<rurr5+%+*3pqshgpq3>zzzzzzzz",
"zzzzzzzzz***>>>*O8y7;ryytyyyyyyyyyt;4ttty6%%&%%200q31>:zzzzzzzzz",
"zzzzzzzzzzzz**@X.7t7;8tyyyyyyyytr4;<7trrt5+%&&%%**>:$zzzzzzzzzzz",
"zzzzzzzzzzzz%302><77;7tuyyyyyyy85547yyr8t5+%&&%o @$$#zzzzzzzzzzz",
"zzzzzzz>>12>,djgp#48-7tyyyytyyy74ttyyt88r6+%&%++>,,1311>>:zzzzzz",
"zzzz>*1q3sdpfdsa0@48&7tyyyytyyy88yuyt888t5#&&o+1ddedhdq3>**zzzzz",
"zz**19qp0sdpfpq9$ <8&7rtyttyyytttyytt888t5#&%+,eddaasp31>zzzzzzz",
"zz*>1309220pqq9>==78-7r8r888tyttyttw8888t5+%+@,0qq021,:*zzzzzzzz",
"zzz>>>>*:*,033*+8tt5-58trt8rtyyyttwwwwwtt5+%%+O,992>*zzzzzzzzzzz",
"zzzzzzzzz$*>*,$%8tt5&;688888888888r88r887-+%&%o@*>>zzzzzzzzzzzzz",
"zzzzzzzzz**$*0q,&7y8++&&&-&-&=-===&&&&-&&+O%-&+..@$**zzzzzzzzzzz",
"zzzzzzzz*200,dgq*;4<%%%++#++++O+%%+OOO+++++#&%O&,9032>zzzzzzzzzz",
"zzzzzzz>>pkgppepp&o%;---;--=&&&---&&&&&&&&&++%+1djfe01**zzzzzzzz",
"zzzzzz>90pssppq00##-;-=--&-&==&=--&-&&&===&&++%%2q2,>>>zzzzzzzzz",
"zzzzz*>120pp009>*o&;-&=-&&&&&&&&&&&&&&&&&&&-++&OO&*$zzzzzzzzzzzz",
"zzzz*:**$10922>@.+&-&&--&&&&&&&&&&=&&&&&&&&&%%%+O@*zzzzzzzzzzzzz",
"zzzzzzzzz*::>*$O+--&&=&&=&=&&&&%%%&&&=&&=&&&&%+%%ozzzzzzzzzzzzzz",
"zzzzzzzzzzzzz@OO&-&&&&&&&&&&&&%+++%&&&&&=&&&&&O&%Ozzzzzzzzzzzzzz",
"zzzzzzzzzzzzzOo+-=&&&++++&&=&+>>>>+&&&&&&-&&=&%++Ozzzzzzzzzzzzzz",
"zzzzzzzzzzzzzOO+&&&&%&*$$%&&%%psq9*%%&&&&%%&&&=+OOzzzzzzzzzzzzzz",
"zzzzzzzzzzzzzOOO&&&%$0003#&++3gfq00*+&&&#O+%&&&+OOzzzzzzzzzzzzzz",
"zzzzzzzzzzzzzzOO+&#%0epeq3%o$0speq0&OO%+*22%%&@OOzzzzzzzzzzzzzzz",
"zzzzzzzzzzzzzzzOo#o%pgae02#@,pdsee0>#o+*edp>@+OOzzzzzzzzzzzzzzzz",
"zzzzzzzzzzzzzzzzOXO*9kfq3*O,qejhse01*@$3fgq1$oozzzzzzzzzzzzzzzzz",
"zzzzzzzzzzzzzzzzzz***jdq2>*2eehljp0,$>3pa0**zzzzzzzzzzzzzzzzzzzz",
"zzzzzzzzzzzzzzzzzz:*:gg9***2qpglhpp1**3fg0>zzzzzzzzzzzzzzzzzzzzz",
"zzzzzzzzzzzzzzzzzz:*:ss9*z*>3pjhsp3>*:9hjq>zzzzzzzzzzzzzzzzzzzzz",
"zzzzzzzzzzzzzzzzzzz**2q0*zz*:qksqq>*$>qgfq>zzzzzzzzzzzzzzzzzzzzz",
"zzzzzzzzzzzzzzzzzzzz>$00>zzz,qhs93>zz>0qp0>zzzzzzzzzzzzzzzzzzzzz",
"zzzzzzzzzzzzzzzzzzzz>$ss:zzz>90q9>>zzz>00>zzzzzzzzzzzzzzzzzzzzzz",
"zzzzzzzzzzzzzzzzzzzzz$qp:zzz>13p0:*zzz*93*zzzzzzzzzzzzzzzzzzzzzz",
"zzzzzzzzzzzzzzzzzzzzz*1>*zzz$*ps0>zzzz*11>zzzzzzzzzzzzzzzzzzzzzz",
"zzzzzzzzzzzzzzzzzzzzz*>*zzzzz*gs2*zzzzz***zzzzzzzzzzzzzzzzzzzzzz",
"zzzzzzzzzzzzzzzzzzzzzz**zzzzz:q0>zzzzzzz**zzzzzzzzzzzzzzzzzzzzzz",
"zzzzzzzzzzzzzzzzzzzzzzzzzzzzz*93*zzzzzzzzzzzzzzzzzzzzzzzzzzzzzzz",
"zzzzzzzzzzzzzzzzzzzzzzzzzzzzz*1>zzzzzzzzzzzzzzzzzzzzzzzzzzzzzzzz",
"zzzzzzzzzzzzzzzzzzzzzzzzzzzzz>>zzzzzzzzzzzzzzzzzzzzzzzzzzzzzzzzz",
"zzzzzzzzzzzzzzzzzzzzzzzzzzzzz>>zzzzzzzzzzzzzzzzzzzzzzzzzzzzzzzzz",
"zzzzzzzzzzzzzzzzzzzzzzzzzzzzz:*zzzzzzzzzzzzzzzzzzzzzzzzzzzzzzzzz",
"zzzzzzzzzzzzzzzzzzzzzzzzzzzzz*zzzzzzzzzzzzzzzzzzzzzzzzzzzzzzzzzz",
"zzzzzzzzzzzzzzzzzzzzzzzzzzzzzzzzzzzzzzzzzzzzzzzzzzzzzzzzzzzzzzzz"
};
